<mxfile host="app.diagrams.net" modified="2023-11-15T15:55:03.583Z" agent="Mozilla/5.0 (Macintosh; Intel Mac OS X 10_15_7) AppleWebKit/605.1.15 (KHTML, like Gecko) Version/17.0 Safari/605.1.15" etag="Cchtb7vIvDMOoorC17kF" version="22.1.1" type="onedrive">
  <diagram name="Page-1" id="xDqZ-CJqX9V-QIO6dbCH">
    <mxGraphModel grid="1" page="1" gridSize="10" guides="1" tooltips="1" connect="1" arrows="1" fold="1" pageScale="1" pageWidth="850" pageHeight="1100" math="0" shadow="0">
      <root>
        <mxCell id="0" />
        <mxCell id="1" parent="0" />
        <mxCell id="--bFUMcZt9wVU4Zz0Bu6-1" value="" style="rounded=0;whiteSpace=wrap;html=1;" vertex="1" parent="1">
          <mxGeometry x="230" y="100" width="120" height="60" as="geometry" />
        </mxCell>
        <mxCell id="--bFUMcZt9wVU4Zz0Bu6-2" value="Recovery" style="text;strokeColor=none;align=center;fillColor=none;html=1;verticalAlign=middle;whiteSpace=wrap;rounded=0;" vertex="1" parent="1">
          <mxGeometry x="260" y="115" width="60" height="30" as="geometry" />
        </mxCell>
        <mxCell id="--bFUMcZt9wVU4Zz0Bu6-3" value="" style="rounded=0;whiteSpace=wrap;html=1;" vertex="1" parent="1">
          <mxGeometry x="110" y="220" width="120" height="60" as="geometry" />
        </mxCell>
        <mxCell id="--bFUMcZt9wVU4Zz0Bu6-6" value="" style="endArrow=classic;html=1;rounded=0;exitX=-0.036;exitY=0.583;exitDx=0;exitDy=0;exitPerimeter=0;" edge="1" parent="1" source="--bFUMcZt9wVU4Zz0Bu6-1">
          <mxGeometry width="50" height="50" relative="1" as="geometry">
            <mxPoint x="220" y="330" as="sourcePoint" />
            <mxPoint x="160" y="210" as="targetPoint" />
          </mxGeometry>
        </mxCell>
        <mxCell id="--bFUMcZt9wVU4Zz0Bu6-7" value="Throw Dice" style="text;strokeColor=none;align=center;fillColor=none;html=1;verticalAlign=middle;whiteSpace=wrap;rounded=0;" vertex="1" parent="1">
          <mxGeometry x="155" y="160" width="60" height="30" as="geometry" />
        </mxCell>
        <mxCell id="--bFUMcZt9wVU4Zz0Bu6-8" value="" style="rounded=0;whiteSpace=wrap;html=1;" vertex="1" parent="1">
          <mxGeometry x="350" y="435" width="120" height="60" as="geometry" />
        </mxCell>
        <mxCell id="--bFUMcZt9wVU4Zz0Bu6-10" value="Neutral Panel" style="text;strokeColor=none;align=center;fillColor=none;html=1;verticalAlign=middle;whiteSpace=wrap;rounded=0;" vertex="1" parent="1">
          <mxGeometry x="380" y="450" width="60" height="30" as="geometry" />
        </mxCell>
        <mxCell id="--bFUMcZt9wVU4Zz0Bu6-11" value="" style="rounded=0;whiteSpace=wrap;html=1;" vertex="1" parent="1">
          <mxGeometry x="350" y="330" width="120" height="60" as="geometry" />
        </mxCell>
        <mxCell id="--bFUMcZt9wVU4Zz0Bu6-12" value="Home Panel&lt;br&gt;" style="text;strokeColor=none;align=center;fillColor=none;html=1;verticalAlign=middle;whiteSpace=wrap;rounded=0;" vertex="1" parent="1">
          <mxGeometry x="380" y="345" width="60" height="30" as="geometry" />
        </mxCell>
        <mxCell id="--bFUMcZt9wVU4Zz0Bu6-13" value="Begin&lt;br&gt;Tourn" style="text;strokeColor=none;align=center;fillColor=none;html=1;verticalAlign=middle;whiteSpace=wrap;rounded=0;" vertex="1" parent="1">
          <mxGeometry x="140" y="235" width="60" height="30" as="geometry" />
        </mxCell>
        <mxCell id="--bFUMcZt9wVU4Zz0Bu6-14" value="" style="rounded=0;whiteSpace=wrap;html=1;" vertex="1" parent="1">
          <mxGeometry x="350" y="520" width="120" height="60" as="geometry" />
        </mxCell>
        <mxCell id="--bFUMcZt9wVU4Zz0Bu6-15" value="" style="rounded=0;whiteSpace=wrap;html=1;" vertex="1" parent="1">
          <mxGeometry x="350" y="610" width="120" height="60" as="geometry" />
        </mxCell>
        <mxCell id="--bFUMcZt9wVU4Zz0Bu6-16" value="" style="rounded=0;whiteSpace=wrap;html=1;" vertex="1" parent="1">
          <mxGeometry x="350" y="700" width="120" height="60" as="geometry" />
        </mxCell>
        <mxCell id="--bFUMcZt9wVU4Zz0Bu6-17" value="Bonus&lt;br&gt;Panel" style="text;strokeColor=none;align=center;fillColor=none;html=1;verticalAlign=middle;whiteSpace=wrap;rounded=0;" vertex="1" parent="1">
          <mxGeometry x="380" y="535" width="60" height="30" as="geometry" />
        </mxCell>
        <mxCell id="--bFUMcZt9wVU4Zz0Bu6-18" value="Drop&lt;br&gt;Panel" style="text;strokeColor=none;align=center;fillColor=none;html=1;verticalAlign=middle;whiteSpace=wrap;rounded=0;" vertex="1" parent="1">
          <mxGeometry x="380" y="625" width="60" height="30" as="geometry" />
        </mxCell>
        <mxCell id="--bFUMcZt9wVU4Zz0Bu6-19" value="Encounter&lt;br&gt;Panel" style="text;strokeColor=none;align=center;fillColor=none;html=1;verticalAlign=middle;whiteSpace=wrap;rounded=0;" vertex="1" parent="1">
          <mxGeometry x="380" y="715" width="60" height="30" as="geometry" />
        </mxCell>
        <mxCell id="--bFUMcZt9wVU4Zz0Bu6-20" value="" style="endArrow=none;html=1;rounded=0;entryX=0.5;entryY=1;entryDx=0;entryDy=0;" edge="1" parent="1" source="--bFUMcZt9wVU4Zz0Bu6-27" target="--bFUMcZt9wVU4Zz0Bu6-3">
          <mxGeometry width="50" height="50" relative="1" as="geometry">
            <mxPoint x="170" y="730" as="sourcePoint" />
            <mxPoint x="290" y="420" as="targetPoint" />
          </mxGeometry>
        </mxCell>
        <mxCell id="--bFUMcZt9wVU4Zz0Bu6-29" value="" style="endArrow=none;html=1;rounded=0;entryX=0.5;entryY=1;entryDx=0;entryDy=0;" edge="1" parent="1" source="--bFUMcZt9wVU4Zz0Bu6-48" target="--bFUMcZt9wVU4Zz0Bu6-27">
          <mxGeometry width="50" height="50" relative="1" as="geometry">
            <mxPoint x="170" y="450" as="sourcePoint" />
            <mxPoint x="170" y="280" as="targetPoint" />
          </mxGeometry>
        </mxCell>
        <mxCell id="--bFUMcZt9wVU4Zz0Bu6-27" value="Throw Dice" style="text;strokeColor=none;align=center;fillColor=none;html=1;verticalAlign=middle;whiteSpace=wrap;rounded=0;" vertex="1" parent="1">
          <mxGeometry x="140" y="300" width="60" height="30" as="geometry" />
        </mxCell>
        <mxCell id="--bFUMcZt9wVU4Zz0Bu6-39" value="" style="rounded=0;whiteSpace=wrap;html=1;" vertex="1" parent="1">
          <mxGeometry x="490" y="200" width="120" height="60" as="geometry" />
        </mxCell>
        <mxCell id="--bFUMcZt9wVU4Zz0Bu6-40" value="End&lt;br&gt;Tourn" style="text;strokeColor=none;align=center;fillColor=none;html=1;verticalAlign=middle;whiteSpace=wrap;rounded=0;" vertex="1" parent="1">
          <mxGeometry x="520" y="215" width="60" height="30" as="geometry" />
        </mxCell>
        <mxCell id="--bFUMcZt9wVU4Zz0Bu6-42" value="" style="endArrow=classic;html=1;rounded=0;" edge="1" parent="1">
          <mxGeometry width="50" height="50" relative="1" as="geometry">
            <mxPoint x="440" y="250" as="sourcePoint" />
            <mxPoint x="240" y="250" as="targetPoint" />
          </mxGeometry>
        </mxCell>
        <mxCell id="--bFUMcZt9wVU4Zz0Bu6-52" value="Next&lt;br&gt;Tourn" style="text;strokeColor=none;align=center;fillColor=none;html=1;verticalAlign=middle;whiteSpace=wrap;rounded=0;" vertex="1" parent="1">
          <mxGeometry x="295" y="235" width="60" height="30" as="geometry" />
        </mxCell>
        <mxCell id="--bFUMcZt9wVU4Zz0Bu6-55" value="" style="endArrow=none;html=1;rounded=0;entryX=0;entryY=0.5;entryDx=0;entryDy=0;" edge="1" parent="1" target="--bFUMcZt9wVU4Zz0Bu6-39">
          <mxGeometry width="50" height="50" relative="1" as="geometry">
            <mxPoint x="440" y="230" as="sourcePoint" />
            <mxPoint x="440" y="390" as="targetPoint" />
          </mxGeometry>
        </mxCell>
        <mxCell id="--bFUMcZt9wVU4Zz0Bu6-56" value="" style="endArrow=none;html=1;rounded=0;" edge="1" parent="1">
          <mxGeometry width="50" height="50" relative="1" as="geometry">
            <mxPoint x="440" y="250" as="sourcePoint" />
            <mxPoint x="440" y="230" as="targetPoint" />
          </mxGeometry>
        </mxCell>
        <mxCell id="--bFUMcZt9wVU4Zz0Bu6-57" value="" style="rounded=0;whiteSpace=wrap;html=1;" vertex="1" parent="1">
          <mxGeometry x="110" y="450" width="120" height="60" as="geometry" />
        </mxCell>
        <mxCell id="--bFUMcZt9wVU4Zz0Bu6-58" value="" style="rounded=0;whiteSpace=wrap;html=1;" vertex="1" parent="1">
          <mxGeometry x="110" y="610" width="120" height="60" as="geometry" />
        </mxCell>
        <mxCell id="--bFUMcZt9wVU4Zz0Bu6-59" value="Battle with&lt;br&gt;Character" style="text;html=1;strokeColor=none;fillColor=none;align=center;verticalAlign=middle;whiteSpace=wrap;rounded=0;" vertex="1" parent="1">
          <mxGeometry x="140" y="625" width="60" height="30" as="geometry" />
        </mxCell>
        <mxCell id="--bFUMcZt9wVU4Zz0Bu6-60" value="" style="rounded=0;whiteSpace=wrap;html=1;" vertex="1" parent="1">
          <mxGeometry x="530" y="700" width="120" height="60" as="geometry" />
        </mxCell>
        <mxCell id="--bFUMcZt9wVU4Zz0Bu6-61" value="Battle with&lt;br&gt;Wild Unit" style="text;html=1;strokeColor=none;fillColor=none;align=center;verticalAlign=middle;whiteSpace=wrap;rounded=0;" vertex="1" parent="1">
          <mxGeometry x="560" y="715" width="60" height="30" as="geometry" />
        </mxCell>
        <mxCell id="--bFUMcZt9wVU4Zz0Bu6-62" value="" style="rounded=0;whiteSpace=wrap;html=1;" vertex="1" parent="1">
          <mxGeometry x="550" y="285" width="120" height="60" as="geometry" />
        </mxCell>
        <mxCell id="--bFUMcZt9wVU4Zz0Bu6-63" value="Norma&lt;br&gt;Check" style="text;html=1;strokeColor=none;fillColor=none;align=center;verticalAlign=middle;whiteSpace=wrap;rounded=0;" vertex="1" parent="1">
          <mxGeometry x="580" y="300" width="60" height="30" as="geometry" />
        </mxCell>
        <mxCell id="--bFUMcZt9wVU4Zz0Bu6-64" value="" style="rounded=0;whiteSpace=wrap;html=1;" vertex="1" parent="1">
          <mxGeometry x="550" y="390" width="120" height="60" as="geometry" />
        </mxCell>
        <mxCell id="--bFUMcZt9wVU4Zz0Bu6-65" value="Stay Here" style="text;html=1;strokeColor=none;fillColor=none;align=center;verticalAlign=middle;whiteSpace=wrap;rounded=0;" vertex="1" parent="1">
          <mxGeometry x="580" y="405" width="60" height="30" as="geometry" />
        </mxCell>
        <mxCell id="--bFUMcZt9wVU4Zz0Bu6-68" value="" style="endArrow=none;html=1;rounded=0;entryX=0.5;entryY=1;entryDx=0;entryDy=0;" edge="1" parent="1" target="--bFUMcZt9wVU4Zz0Bu6-48">
          <mxGeometry width="50" height="50" relative="1" as="geometry">
            <mxPoint x="170" y="450" as="sourcePoint" />
            <mxPoint x="170" y="330" as="targetPoint" />
          </mxGeometry>
        </mxCell>
        <mxCell id="--bFUMcZt9wVU4Zz0Bu6-48" value="Lands&lt;br&gt;on" style="text;strokeColor=none;align=center;fillColor=none;html=1;verticalAlign=middle;whiteSpace=wrap;rounded=0;" vertex="1" parent="1">
          <mxGeometry x="155" y="415" width="30" height="30" as="geometry" />
        </mxCell>
        <mxCell id="--bFUMcZt9wVU4Zz0Bu6-69" value="" style="endArrow=classic;html=1;rounded=0;exitX=0.5;exitY=1;exitDx=0;exitDy=0;" edge="1" parent="1">
          <mxGeometry width="50" height="50" relative="1" as="geometry">
            <mxPoint x="139.92000000000002" y="510" as="sourcePoint" />
            <mxPoint x="139.44" y="610" as="targetPoint" />
          </mxGeometry>
        </mxCell>
        <mxCell id="--bFUMcZt9wVU4Zz0Bu6-73" value="Want to fight?" style="text;html=1;strokeColor=none;fillColor=none;align=center;verticalAlign=middle;whiteSpace=wrap;rounded=0;" vertex="1" parent="1">
          <mxGeometry x="110" y="540" width="60" height="30" as="geometry" />
        </mxCell>
        <mxCell id="--bFUMcZt9wVU4Zz0Bu6-77" value="" style="endArrow=classic;html=1;rounded=0;exitX=0;exitY=0.25;exitDx=0;exitDy=0;" edge="1" parent="1" source="--bFUMcZt9wVU4Zz0Bu6-39">
          <mxGeometry width="50" height="50" relative="1" as="geometry">
            <mxPoint x="430" y="400" as="sourcePoint" />
            <mxPoint x="360" y="130" as="targetPoint" />
          </mxGeometry>
        </mxCell>
        <mxCell id="--bFUMcZt9wVU4Zz0Bu6-78" value="Panel" style="text;html=1;strokeColor=none;fillColor=none;align=center;verticalAlign=middle;whiteSpace=wrap;rounded=0;" vertex="1" parent="1">
          <mxGeometry x="140" y="465" width="60" height="30" as="geometry" />
        </mxCell>
        <mxCell id="--bFUMcZt9wVU4Zz0Bu6-80" value="Is KO?" style="text;strokeColor=none;align=center;fillColor=none;html=1;verticalAlign=middle;whiteSpace=wrap;rounded=0;" vertex="1" parent="1">
          <mxGeometry x="395" y="150" width="60" height="30" as="geometry" />
        </mxCell>
        <mxCell id="--bFUMcZt9wVU4Zz0Bu6-81" value="" style="endArrow=classic;html=1;rounded=0;exitX=1;exitY=0.5;exitDx=0;exitDy=0;entryX=0;entryY=0.5;entryDx=0;entryDy=0;" edge="1" parent="1" source="--bFUMcZt9wVU4Zz0Bu6-11" target="--bFUMcZt9wVU4Zz0Bu6-64">
          <mxGeometry width="50" height="50" relative="1" as="geometry">
            <mxPoint x="430" y="540" as="sourcePoint" />
            <mxPoint x="540" y="470" as="targetPoint" />
          </mxGeometry>
        </mxCell>
        <mxCell id="--bFUMcZt9wVU4Zz0Bu6-82" value="" style="endArrow=classic;html=1;rounded=0;entryX=1;entryY=0.5;entryDx=0;entryDy=0;" edge="1" parent="1" target="--bFUMcZt9wVU4Zz0Bu6-39">
          <mxGeometry width="50" height="50" relative="1" as="geometry">
            <mxPoint x="760" y="230" as="sourcePoint" />
            <mxPoint x="480" y="490" as="targetPoint" />
          </mxGeometry>
        </mxCell>
        <mxCell id="--bFUMcZt9wVU4Zz0Bu6-83" value="" style="endArrow=none;html=1;rounded=0;" edge="1" parent="1">
          <mxGeometry width="50" height="50" relative="1" as="geometry">
            <mxPoint x="760" y="730" as="sourcePoint" />
            <mxPoint x="760" y="230" as="targetPoint" />
          </mxGeometry>
        </mxCell>
        <mxCell id="--bFUMcZt9wVU4Zz0Bu6-86" value="" style="endArrow=none;html=1;rounded=0;exitX=1;exitY=0.5;exitDx=0;exitDy=0;" edge="1" parent="1" source="--bFUMcZt9wVU4Zz0Bu6-60">
          <mxGeometry width="50" height="50" relative="1" as="geometry">
            <mxPoint x="430" y="540" as="sourcePoint" />
            <mxPoint x="760" y="730" as="targetPoint" />
          </mxGeometry>
        </mxCell>
        <mxCell id="--bFUMcZt9wVU4Zz0Bu6-87" value="" style="endArrow=none;html=1;rounded=0;entryX=0;entryY=0.5;entryDx=0;entryDy=0;exitX=1;exitY=0.5;exitDx=0;exitDy=0;" edge="1" parent="1" source="--bFUMcZt9wVU4Zz0Bu6-16" target="--bFUMcZt9wVU4Zz0Bu6-60">
          <mxGeometry width="50" height="50" relative="1" as="geometry">
            <mxPoint x="430" y="540" as="sourcePoint" />
            <mxPoint x="480" y="490" as="targetPoint" />
          </mxGeometry>
        </mxCell>
        <mxCell id="--bFUMcZt9wVU4Zz0Bu6-88" value="" style="endArrow=none;html=1;rounded=0;exitX=1;exitY=0.5;exitDx=0;exitDy=0;" edge="1" parent="1" source="--bFUMcZt9wVU4Zz0Bu6-15">
          <mxGeometry width="50" height="50" relative="1" as="geometry">
            <mxPoint x="430" y="540" as="sourcePoint" />
            <mxPoint x="760" y="640" as="targetPoint" />
          </mxGeometry>
        </mxCell>
        <mxCell id="--bFUMcZt9wVU4Zz0Bu6-89" value="" style="endArrow=none;html=1;rounded=0;exitX=1.015;exitY=0.374;exitDx=0;exitDy=0;exitPerimeter=0;" edge="1" parent="1" source="--bFUMcZt9wVU4Zz0Bu6-62">
          <mxGeometry width="50" height="50" relative="1" as="geometry">
            <mxPoint x="430" y="540" as="sourcePoint" />
            <mxPoint x="760" y="307" as="targetPoint" />
          </mxGeometry>
        </mxCell>
        <mxCell id="--bFUMcZt9wVU4Zz0Bu6-92" value="" style="endArrow=none;html=1;rounded=0;exitX=1;exitY=0.5;exitDx=0;exitDy=0;" edge="1" parent="1" source="--bFUMcZt9wVU4Zz0Bu6-14">
          <mxGeometry width="50" height="50" relative="1" as="geometry">
            <mxPoint x="430" y="540" as="sourcePoint" />
            <mxPoint x="760" y="550" as="targetPoint" />
          </mxGeometry>
        </mxCell>
        <mxCell id="--bFUMcZt9wVU4Zz0Bu6-93" value="" style="endArrow=none;html=1;rounded=0;exitX=1;exitY=0.5;exitDx=0;exitDy=0;" edge="1" parent="1" source="--bFUMcZt9wVU4Zz0Bu6-8">
          <mxGeometry width="50" height="50" relative="1" as="geometry">
            <mxPoint x="430" y="540" as="sourcePoint" />
            <mxPoint x="760" y="465" as="targetPoint" />
          </mxGeometry>
        </mxCell>
        <mxCell id="--bFUMcZt9wVU4Zz0Bu6-95" value="" style="endArrow=classic;html=1;rounded=0;entryX=0.75;entryY=1;entryDx=0;entryDy=0;exitX=0.75;exitY=0;exitDx=0;exitDy=0;" edge="1" parent="1" source="--bFUMcZt9wVU4Zz0Bu6-58" target="--bFUMcZt9wVU4Zz0Bu6-57">
          <mxGeometry width="50" height="50" relative="1" as="geometry">
            <mxPoint x="200" y="600" as="sourcePoint" />
            <mxPoint x="200" y="520" as="targetPoint" />
          </mxGeometry>
        </mxCell>
        <mxCell id="--bFUMcZt9wVU4Zz0Bu6-96" value="Won" style="text;html=1;strokeColor=none;fillColor=none;align=center;verticalAlign=middle;whiteSpace=wrap;rounded=0;" vertex="1" parent="1">
          <mxGeometry x="185" y="535" width="60" height="30" as="geometry" />
        </mxCell>
        <mxCell id="--bFUMcZt9wVU4Zz0Bu6-98" value="" style="endArrow=classic;html=1;rounded=0;" edge="1" parent="1">
          <mxGeometry width="50" height="50" relative="1" as="geometry">
            <mxPoint x="280" y="300" as="sourcePoint" />
            <mxPoint x="480" y="270" as="targetPoint" />
          </mxGeometry>
        </mxCell>
        <mxCell id="--bFUMcZt9wVU4Zz0Bu6-99" value="" style="endArrow=none;html=1;rounded=0;" edge="1" parent="1">
          <mxGeometry width="50" height="50" relative="1" as="geometry">
            <mxPoint x="280" y="640" as="sourcePoint" />
            <mxPoint x="280" y="300" as="targetPoint" />
          </mxGeometry>
        </mxCell>
        <mxCell id="--bFUMcZt9wVU4Zz0Bu6-100" value="" style="endArrow=none;html=1;rounded=0;exitX=1;exitY=0.5;exitDx=0;exitDy=0;" edge="1" parent="1" source="--bFUMcZt9wVU4Zz0Bu6-58">
          <mxGeometry width="50" height="50" relative="1" as="geometry">
            <mxPoint x="430" y="440" as="sourcePoint" />
            <mxPoint x="280" y="640" as="targetPoint" />
          </mxGeometry>
        </mxCell>
        <mxCell id="--bFUMcZt9wVU4Zz0Bu6-101" value="Lost" style="text;html=1;strokeColor=none;fillColor=none;align=center;verticalAlign=middle;whiteSpace=wrap;rounded=0;" vertex="1" parent="1">
          <mxGeometry x="220" y="640" width="60" height="30" as="geometry" />
        </mxCell>
        <mxCell id="--bFUMcZt9wVU4Zz0Bu6-102" value="" style="endArrow=none;html=1;rounded=0;exitX=1;exitY=0.5;exitDx=0;exitDy=0;" edge="1" parent="1" source="--bFUMcZt9wVU4Zz0Bu6-57">
          <mxGeometry width="50" height="50" relative="1" as="geometry">
            <mxPoint x="430" y="440" as="sourcePoint" />
            <mxPoint x="310" y="480" as="targetPoint" />
          </mxGeometry>
        </mxCell>
        <mxCell id="--bFUMcZt9wVU4Zz0Bu6-103" value="" style="endArrow=classic;html=1;rounded=0;entryX=0;entryY=0.5;entryDx=0;entryDy=0;" edge="1" parent="1" target="--bFUMcZt9wVU4Zz0Bu6-11">
          <mxGeometry width="50" height="50" relative="1" as="geometry">
            <mxPoint x="310" y="480" as="sourcePoint" />
            <mxPoint x="480" y="390" as="targetPoint" />
          </mxGeometry>
        </mxCell>
        <mxCell id="--bFUMcZt9wVU4Zz0Bu6-104" value="" style="endArrow=classic;html=1;rounded=0;entryX=0;entryY=0.5;entryDx=0;entryDy=0;" edge="1" parent="1" target="--bFUMcZt9wVU4Zz0Bu6-8">
          <mxGeometry width="50" height="50" relative="1" as="geometry">
            <mxPoint x="310" y="480" as="sourcePoint" />
            <mxPoint x="480" y="390" as="targetPoint" />
          </mxGeometry>
        </mxCell>
        <mxCell id="--bFUMcZt9wVU4Zz0Bu6-106" value="" style="endArrow=classic;html=1;rounded=0;entryX=0;entryY=0.5;entryDx=0;entryDy=0;" edge="1" parent="1" target="--bFUMcZt9wVU4Zz0Bu6-14">
          <mxGeometry width="50" height="50" relative="1" as="geometry">
            <mxPoint x="310" y="480" as="sourcePoint" />
            <mxPoint x="480" y="390" as="targetPoint" />
          </mxGeometry>
        </mxCell>
        <mxCell id="--bFUMcZt9wVU4Zz0Bu6-107" value="" style="endArrow=classic;html=1;rounded=0;entryX=0;entryY=0.5;entryDx=0;entryDy=0;" edge="1" parent="1" target="--bFUMcZt9wVU4Zz0Bu6-15">
          <mxGeometry width="50" height="50" relative="1" as="geometry">
            <mxPoint x="310" y="480" as="sourcePoint" />
            <mxPoint x="480" y="390" as="targetPoint" />
          </mxGeometry>
        </mxCell>
        <mxCell id="--bFUMcZt9wVU4Zz0Bu6-108" value="" style="endArrow=classic;html=1;rounded=0;entryX=0;entryY=0.5;entryDx=0;entryDy=0;" edge="1" parent="1" target="--bFUMcZt9wVU4Zz0Bu6-16">
          <mxGeometry width="50" height="50" relative="1" as="geometry">
            <mxPoint x="310" y="480" as="sourcePoint" />
            <mxPoint x="480" y="390" as="targetPoint" />
          </mxGeometry>
        </mxCell>
        <mxCell id="--bFUMcZt9wVU4Zz0Bu6-109" value="Owner" style="text;html=1;strokeColor=none;fillColor=none;align=center;verticalAlign=middle;whiteSpace=wrap;rounded=0;" vertex="1" parent="1">
          <mxGeometry x="480" y="385" width="60" height="30" as="geometry" />
        </mxCell>
        <mxCell id="--bFUMcZt9wVU4Zz0Bu6-110" value="" style="endArrow=classic;html=1;rounded=0;entryX=-0.033;entryY=0.476;entryDx=0;entryDy=0;entryPerimeter=0;" edge="1" parent="1" target="--bFUMcZt9wVU4Zz0Bu6-62">
          <mxGeometry width="50" height="50" relative="1" as="geometry">
            <mxPoint x="470" y="360" as="sourcePoint" />
            <mxPoint x="630" y="420" as="targetPoint" />
          </mxGeometry>
        </mxCell>
        <mxCell id="--bFUMcZt9wVU4Zz0Bu6-111" value="" style="endArrow=classic;html=1;rounded=0;entryX=0.5;entryY=1;entryDx=0;entryDy=0;exitX=0.5;exitY=0;exitDx=0;exitDy=0;" edge="1" parent="1" source="--bFUMcZt9wVU4Zz0Bu6-64" target="--bFUMcZt9wVU4Zz0Bu6-62">
          <mxGeometry width="50" height="50" relative="1" as="geometry">
            <mxPoint x="580" y="470" as="sourcePoint" />
            <mxPoint x="630" y="420" as="targetPoint" />
          </mxGeometry>
        </mxCell>
        <mxCell id="--bFUMcZt9wVU4Zz0Bu6-112" value="Nothing happens" style="text;html=1;strokeColor=none;fillColor=none;align=center;verticalAlign=middle;whiteSpace=wrap;rounded=0;" vertex="1" parent="1">
          <mxGeometry x="500" y="450" width="60" height="30" as="geometry" />
        </mxCell>
        <mxCell id="--bFUMcZt9wVU4Zz0Bu6-113" value="Add bonus" style="text;html=1;strokeColor=none;fillColor=none;align=center;verticalAlign=middle;whiteSpace=wrap;rounded=0;" vertex="1" parent="1">
          <mxGeometry x="500" y="535" width="60" height="30" as="geometry" />
        </mxCell>
        <mxCell id="--bFUMcZt9wVU4Zz0Bu6-114" value="Lose bonus" style="text;html=1;strokeColor=none;fillColor=none;align=center;verticalAlign=middle;whiteSpace=wrap;rounded=0;" vertex="1" parent="1">
          <mxGeometry x="490" y="625" width="60" height="30" as="geometry" />
        </mxCell>
      </root>
    </mxGraphModel>
  </diagram>
</mxfile>
